<?xml version="1.0" encoding="utf-8"?>
<!-- Generator: Adobe Illustrator 27.0.1, SVG Export Plug-In . SVG Version: 6.00 Build 0)  -->
<svg version="1.1" id="Слой_1" xmlns="http://www.w3.org/2000/svg" xmlns:xlink="http://www.w3.org/1999/xlink" x="0px" y="0px"
	 viewBox="0 0 128 128" style="enable-background:new 0 0 128 128;" xml:space="preserve">
<style type="text/css">
	.st0{clip-path:url(#SVGID_00000003104848743447647680000014633098189217599123_);}
	.st1{fill:#582CFD;}
	.st2{fill:url(#SVGID_00000170268787831398524250000016943082279938967185_);}
	.st3{fill:url(#SVGID_00000145060370281014040160000018430912924346997160_);}
	.st4{fill:url(#SVGID_00000099638388428656080140000012142573708919150490_);}
	.st5{fill:url(#SVGID_00000043424402650829271890000005414636533650013114_);}
	.st6{fill:url(#SVGID_00000026127342874673126990000017443471529656657338_);}
	.st7{fill:url(#SVGID_00000027584556433465642790000013413303884659475863_);}
</style>
<g>
	<defs>
		<rect id="SVGID_1_" width="128" height="128"/>
	</defs>
	<clipPath id="SVGID_00000003071474516002049020000003221351267162760337_">
		<use xlink:href="#SVGID_1_"  style="overflow:visible;"/>
	</clipPath>
	<g style="clip-path:url(#SVGID_00000003071474516002049020000003221351267162760337_);">
		<path class="st1" d="M22,0h84c12.2,0,22,9.9,22,22v84c0,12.2-9.8,22-22,22H22c-12.1,0-22-9.8-22-22V22C0,9.9,9.9,0,22,0z"/>
		
			<linearGradient id="SVGID_00000029013183370116774240000013923330568587953843_" gradientUnits="userSpaceOnUse" x1="108.3045" y1="102.4393" x2="47.9295" y2="68.5643" gradientTransform="matrix(1 0 0 -1 0 130)">
			<stop  offset="0" style="stop-color:#582CFD"/>
			<stop  offset="1" style="stop-color:#FFFFFF"/>
		</linearGradient>
		<path style="fill:url(#SVGID_00000029013183370116774240000013923330568587953843_);" d="M64,64l-11.1,6.2l-6.2-3.5
			c0,0,0-27.9,0-30.3c0-2.4,1.8-3.2,1.8-3.2S68.4,21.5,71.6,20s5.2-2.3,7.7-2.8c21.2-3.8,30.5,13.6,30.5,13.6s6.7,10,2.4,23L64,64z"
			/>
		
			<linearGradient id="SVGID_00000016062144134893752030000016137481001385011588_" gradientUnits="userSpaceOnUse" x1="116.9005" y1="45.2021" x2="59.9355" y2="82.9626" gradientTransform="matrix(1 0 0 -1 0 130)">
			<stop  offset="0" style="stop-color:#582CFD"/>
			<stop  offset="1" style="stop-color:#FFFFFF"/>
		</linearGradient>
		<path style="fill:url(#SVGID_00000016062144134893752030000016137481001385011588_);" d="M64,64l-10.9-6.5L53,50.3
			c0,0,24.1-13.9,26.2-15.1c2.1-1.2,3.7,0,3.7,0s20.2,11.4,23,13.4c2.9,2,4.6,3.4,6.3,5.2c13.9,16.5,3.5,33.2,3.5,33.2
			s-5.3,10.8-18.7,13.5L64,64z"/>
		
			<linearGradient id="SVGID_00000065769421633327217630000004192106678050486206_" gradientUnits="userSpaceOnUse" x1="70.0493" y1="8.6294" x2="82.6498" y2="75.2459" gradientTransform="matrix(1 0 0 -1 0 130)">
			<stop  offset="0" style="stop-color:#582CFD"/>
			<stop  offset="1" style="stop-color:#FFFFFF"/>
		</linearGradient>
		<path style="fill:url(#SVGID_00000065769421633327217630000004192106678050486206_);" d="M64,64l0.2-12.7l6.2-3.7
			c0,0,24.1,13.9,26.2,15.1c2.1,1.2,1.8,3.2,1.8,3.2s0.2,23.2-0.1,26.6s-0.7,5.7-1.4,8.1c-7.3,20.3-27,19.7-27,19.7
			s-12,0.8-21.1-9.4L64,64z"/>
		
			<linearGradient id="SVGID_00000037689858191013983320000011854985486709570216_" gradientUnits="userSpaceOnUse" x1="57.9507" y1="123.3706" x2="45.3502" y2="56.7541" gradientTransform="matrix(1 0 0 -1 0 130)">
			<stop  offset="0" style="stop-color:#582CFD"/>
			<stop  offset="1" style="stop-color:#FFFFFF"/>
		</linearGradient>
		<path style="fill:url(#SVGID_00000037689858191013983320000011854985486709570216_);" d="M63.8,76.7L64,64l-11.1,6.2l-6.2-3.5
			V36.4c0-2.4,1.8-3.2,1.8-3.2S68.4,21.5,71.6,20c3.1-1.5,5.2-2.2,7.5-2.8l0-0.1C70.1,6.9,58.1,7.7,58.1,7.7S38.3,7.1,31,27.4
			c-0.8,2.4-1.1,4.6-1.4,8.1c-0.3,3.5,0,26.6,0,26.6s-0.2,2,1.9,3.2c2.1,1.2,26.2,15.1,26.2,15.1L63.8,76.7z"/>
		
			<linearGradient id="SVGID_00000013904988196938085520000007845446463109146510_" gradientUnits="userSpaceOnUse" x1="10.3799" y1="87.3272" x2="67.9364" y2="48.9157" gradientTransform="matrix(1 0 0 -1 0 130)">
			<stop  offset="0" style="stop-color:#582CFD"/>
			<stop  offset="1" style="stop-color:#FFFFFF"/>
		</linearGradient>
		<path style="fill:url(#SVGID_00000013904988196938085520000007845446463109146510_);" d="M63.8,76.7L64,64l10.9,6.5l0.1,7.2
			c0,0-24.1,13.9-26.2,15.1c-2.1,1.2-3.7,0-3.7,0s-20.2-11.4-23-13.4s-4.6-3.4-6.3-5.2C1.9,57.8,12.3,41,12.3,41S17.6,30.2,31,27.5
			l0.1,0.1c-0.7,2.3-1.1,4.5-1.4,7.9c-0.3,3.5,0,26.6,0,26.6s-0.2,2,1.9,3.2c2.1,1.2,26.2,15.1,26.2,15.1L63.8,76.7z"/>
		
			<linearGradient id="SVGID_00000114753654726866457440000013075464546485721241_" gradientUnits="userSpaceOnUse" x1="20.7474" y1="30.0394" x2="79.9974" y2="63.6644" gradientTransform="matrix(1 0 0 -1 0 130)">
			<stop  offset="0" style="stop-color:#582CFD"/>
			<stop  offset="1" style="stop-color:#FFFFFF"/>
		</linearGradient>
		<path style="fill:url(#SVGID_00000114753654726866457440000013075464546485721241_);" d="M74.9,70.5L64,64l11.1-6.2l6.2,3.5v30.2
			c0,2.4-1.8,3.2-1.8,3.2s-20,11.8-23.1,13.3c-3.2,1.5-5.2,2.3-7.7,2.8c-21.2,3.8-30.5-13.6-30.5-13.6s-6.7-10-2.4-23l0.1,0
			c1.6,1.8,3.4,3.1,6.2,5.1c2.8,2,23,13.4,23,13.4s1.6,1.2,3.7,0C50.9,91.6,75,77.7,75,77.7L74.9,70.5z"/>
	</g>
</g>
</svg>
